<?xml version="1.0" encoding="utf-8"?>
<!-- Generator: Adobe Illustrator 26.0.0, SVG Export Plug-In . SVG Version: 6.00 Build 0)  -->
<svg version="1.1" xmlns="http://www.w3.org/2000/svg" xmlns:xlink="http://www.w3.org/1999/xlink" x="0px" y="0px"
	 viewBox="0 0 595.3 328.9" style="enable-background:new 0 0 595.3 328.9;" xml:space="preserve">
<style type="text/css">
	.st0{fill:#D9F5FE;}
	.st1{fill:#003B5D;}
	.st2{fill:#00BAEF;}
	.st3{fill:#FFFFFF;}
	.st4{fill:#003758;}
	.st5{fill:#00BAEF;stroke:#D9F5FE;stroke-width:4;stroke-miterlimit:10;}
</style>
<g id="Шар_1">
</g>
<g id="Вектор">
	<rect class="st0" width="595.3" height="334.5"/>
	<path class="st1" d="M503.4,370.6L503.4,370.6z"/>
	<path class="st1" d="M492.5,364.9L492.5,364.9z"/>
	<path class="st2" d="M222.8,544.9"/>
	<path class="st3" d="M259.3,633.5"/>
	<path class="st2" d="M387,544.9"/>
	<g>
		<path class="st2" d="M227.9,135.7c-0.1,2.6,0,5.2,0.3,7.7c-1.5,0.8-2.9,1.7-4.4,2.5c-1.8,1-3.4,2-4.3,2.5c0,0-4.8,2.8-9.7,5.9
			c-4.7,3-14.2,9.4-26.1,18.3c7.2-7.8,16-16.2,26.6-24.5C216.4,143.4,222.3,139.3,227.9,135.7z"/>
		<path class="st2" d="M391.9,76.5c2.2,15.9-22.4,46.1-22.4,46.1c9.9-23.5,3.2-30,3.2-30c-2-3.6-13-5.2-32.8,1.9
			c-4.7-4.2-9.9-7.6-15.4-10.3c12.9-6.6,26-12.1,38.8-15.6C363.3,68.6,389.7,60.6,391.9,76.5z"/>
		<path class="st4" d="M246.7,236.3h24c3.9,0,7,3.1,7,7l0,0h-31V236.3z"/>
		<path class="st4" d="M246.7,253.3h24c3.9,0,7-3.1,7-7l0,0h-31V253.3z"/>
		<rect x="269.7" y="242.3" class="st4" width="8" height="4"/>
		<rect x="246.7" y="251.3" class="st4" width="7" height="11"/>
		<rect x="228.7" y="236.3" class="st4" width="8" height="26"/>
		<rect x="222.7" y="256.3" class="st4" width="20" height="6"/>
		<rect x="222.7" y="236.3" class="st4" width="20" height="6"/>
		<rect x="281.7" y="236.3" class="st4" width="6" height="26"/>
		<rect x="281.7" y="256.3" class="st4" width="28" height="6"/>
		<polyline class="st4" points="319.7,234.3 319.7,262.3 313.7,262.3 313.7,234.3 		"/>
		<polyline class="st4" points="360.7,234.3 360.7,262.3 354.7,262.3 354.7,234.3 		"/>
		<rect x="360.7" y="244.7" class="st4" width="11" height="6"/>
		<path class="st4" d="M365.8,247.7l13-13h11l-18.5,17.5L365.8,247.7z"/>
		<path class="st4" d="M365.8,248.7l13,13h11l-18.5-17.5L365.8,248.7z"/>
		<polyline class="st4" points="329.9,234.3 329.9,262.3 323.9,262.3 323.9,234.3 		"/>
		<polyline class="st4" points="350.9,234.3 350.9,262.3 344.9,262.3 344.9,234.3 		"/>
		<path class="st4" d="M329.9,234.3l17,18.8l-2,9.2l-17-19.2L329.9,234.3"/>
		<path class="st1" d="M278.8,169.5l0.1-2.4l-14.8-0.7l0.2,2.2c-6.6,0-17-1.7-17.4-1.8c-0.2,1.4-0.6,10.2-0.6,10.2s0.1,0,0.2,0.1
			l-0.3,0l7.6,3.8c2.7,0.3,35,0.1,28.8-0.3c21-4.2,59.1-3.1,70.2-3.2c-10.9,20.9-32.7,35.2-57.9,35.2c-36,0-65.2-29.2-65.2-65.2
			c0-5.8,0.8-11.5,2.2-16.9c32.4-5.6,58.3-5.7,79.1-5.1l0.1,2.1l14.8,0.6l-0.1-2.2c6.7,0.2,12.8,0.4,18.3,0.3c0.3-1.3,0-8.1,0-8.1
			s-0.1,0-0.2-0.1l0.2,0c-1.2-0.4-6.5-7.2-7.8-7.2c-1.1,0-3.7-0.2-6.5-0.4c-4.5-1.5-9.5-3.5-13.3-5.2c-3.8-1.7-6.5-3-6.5-3l-2,2.2
			c0.2,0.1,4.7,2.1,10.4,5.2c-4.9-0.1-15.3-0.3-15.3-0.4c-0.5-0.1,0.1,2.4-1.2,3.2c-16.1-0.6-59.9,3.6-64.5,4.1
			C248.4,96,270.1,82,295,82c36,0,65.2,29.2,65.2,65.2c0,6.3-0.9,12.5-2.6,18.3C350.8,166,306.3,169,278.8,169.5z"/>
		<path class="st5" d="M411.6,98c-8.8,9.1-21.6,21.1-38.1,33.7c-33.2,25.2-62,37.5-68.6,40.3c-36.6,15.3-87.8,27.6-91.7,14.7
			c-0.8-2.5-0.9-4.7-0.9-6.5c0.5-12.7,13.5-20.4,15.2-21.4c-9.6,4.4-16.3,9.7-20.5,13.6c-6,5.5-15.1,14.7-15.8,26.5
			c-0.1,1.7,0.1,3.5,1,5.4c3.5,7.5,16.1,10.6,32,8.4c8.6-0.9,21.4-2.7,36.5-6.8c51.2-13.8,84.9-41.7,102.7-56.8
			C376.4,138.1,393.9,121.4,411.6,98z"/>
	</g>
</g>
<g id="Шар_3">
</g>
</svg>
